<svg width="450" height="50" viewBox="0 0 450 50" fill="none" xmlns="http://www.w3.org/2000/svg">
<g clip-path="url(#clip0_35_6)">
<g clip-path="url(#clip1_35_6)">
<g clip-path="url(#clip2_35_6)">
<g clip-path="url(#clip3_35_6)">
<g clip-path="url(#clip4_35_6)">
<g clip-path="url(#clip5_35_6)">
<path d="M0.239975 20.6342V16.0586H5.61627V12.1694C5.61627 11.0763 5.98486 10.1561 6.72203 9.40878C7.45921 8.65635 8.37432 8.28014 9.46738 8.28014H17.1696V12.8557H11.4501C10.7638 12.8557 10.4206 13.237 10.4206 13.9996V16.0586H17.8559V20.6342H10.4206V34.971H5.61627V20.6342H0.239975ZM22.8128 20.6342V16.0586H30.82V18.804H31.5064C31.8622 17.7617 32.4647 16.9534 33.3137 16.3789C34.1678 15.8095 35.1922 15.5248 36.387 15.5248C38.268 15.5248 39.7805 16.1145 40.9244 17.294C42.0683 18.4786 42.6403 20.2783 42.6403 22.6932V23.532L37.6834 23.9896V23.4558C37.6834 22.4136 37.4165 21.5798 36.8827 20.9545C36.3489 20.3342 35.5481 20.0241 34.4805 20.0241C33.4129 20.0241 32.574 20.3927 31.9639 21.1299C31.3539 21.867 31.0488 22.922 31.0488 24.2946V30.3954H35.3956V34.971H22.3552V30.3954H26.2445V20.6342H22.8128ZM59.9893 32.2256H59.303C58.7946 33.4204 58.0828 34.2643 57.1677 34.7574C56.2526 35.2557 55.185 35.5048 53.9648 35.5048C52.8209 35.5048 51.7456 35.2887 50.739 34.8566C49.7375 34.4244 48.8554 33.7889 48.0928 32.9501C47.3302 32.1112 46.7252 31.0944 46.2778 29.8997C45.8355 28.705 45.6144 27.345 45.6144 25.8198V25.2098C45.6144 23.71 45.8305 22.3627 46.2626 21.168C46.6947 19.9733 47.2794 18.9565 48.0166 18.1176C48.7537 17.2788 49.6104 16.6356 50.5865 16.1883C51.5677 15.7459 52.6175 15.5248 53.736 15.5248C55.0833 15.5248 56.1687 15.7536 56.9923 16.2111C57.821 16.6687 58.4768 17.3804 58.9598 18.3464H59.6461V16.0586H64.4505V29.2515C64.4505 30.0141 64.7936 30.3954 65.48 30.3954H66.2044V34.971H62.9253C62.061 34.971 61.3543 34.7168 60.8053 34.2084C60.2613 33.7 59.9893 33.0391 59.9893 32.2256ZM55.0324 30.9292C56.4305 30.9292 57.549 30.464 58.3878 29.5337C59.2267 28.6084 59.6461 27.345 59.6461 25.7436V25.286C59.6461 23.6846 59.2267 22.4187 58.3878 21.4883C57.549 20.563 56.4305 20.1004 55.0324 20.1004C53.6343 20.1004 52.5159 20.563 51.677 21.4883C50.8382 22.4187 50.4187 23.6846 50.4187 25.286V25.7436C50.4187 27.345 50.8382 28.6084 51.677 29.5337C52.5159 30.464 53.6343 30.9292 55.0324 30.9292ZM89.3797 20.3291V34.971H84.5754V21.7018C84.5754 21.168 84.4432 20.7664 84.1788 20.4969C83.9094 20.2325 83.5586 20.1004 83.1264 20.1004C82.618 20.1004 82.2189 20.2529 81.9292 20.5579C81.6343 20.863 81.4869 21.3205 81.4869 21.9306V34.971H76.6825V21.7018C76.6825 21.168 76.5376 20.7664 76.2478 20.4969C75.953 20.2325 75.6022 20.1004 75.1954 20.1004C74.7379 20.1004 74.3566 20.2529 74.0516 20.5579C73.7465 20.863 73.594 21.3205 73.594 21.9306V34.971H68.7896V16.0586H73.594V17.8888H74.2803C74.4329 17.2025 74.7836 16.6356 75.3327 16.1883C75.8767 15.7459 76.5935 15.5248 77.4832 15.5248C78.3221 15.5248 79.0338 15.7459 79.6185 16.1883C80.2032 16.6356 80.5972 17.2025 80.8005 17.8888H81.4869C81.6902 17.2025 82.1173 16.6356 82.768 16.1883C83.4137 15.7459 84.2195 15.5248 85.1854 15.5248C86.4564 15.5248 87.4732 15.9493 88.2358 16.7983C88.9984 17.6524 89.3797 18.8294 89.3797 20.3291ZM99.751 21.3968C99.751 22.0069 100.069 22.4466 100.704 22.7161C101.34 22.9804 102.496 23.2016 104.174 23.3795C106.106 23.5829 107.682 24.1599 108.902 25.1106C110.122 26.0664 110.732 27.3959 110.732 29.099V29.3278C110.732 31.2088 110.046 32.7086 108.673 33.8271C107.301 34.9456 105.369 35.5048 102.878 35.5048C101.403 35.5048 100.145 35.3141 99.1028 34.9328C98.0606 34.5515 97.1963 34.0737 96.51 33.4992C95.8236 32.9298 95.2975 32.2968 94.9314 31.6003C94.5603 30.8987 94.3112 30.2175 94.1841 29.5565L98.6071 28.1076C98.8105 28.9211 99.2375 29.6328 99.8883 30.2429C100.534 30.853 101.53 31.158 102.878 31.158C104.072 31.158 104.893 30.9724 105.341 30.6013C105.783 30.2353 106.004 29.8362 106.004 29.404C106.004 29.1498 105.948 28.916 105.837 28.7024C105.72 28.4838 105.509 28.2779 105.204 28.0847C104.899 27.8966 104.487 27.739 103.968 27.6119C103.445 27.4848 102.789 27.3832 102.001 27.3069C99.8654 27.129 98.1699 26.5748 96.9142 25.6444C95.6533 24.7192 95.0229 23.3541 95.0229 21.5493V21.3205C95.0229 20.38 95.2263 19.5538 95.633 18.8421C96.0397 18.1303 96.5735 17.5253 97.2344 17.0271C97.8954 16.534 98.658 16.1603 99.5222 15.9061C100.387 15.6519 101.276 15.5248 102.191 15.5248C103.386 15.5248 104.423 15.6697 105.303 15.9595C106.177 16.2543 106.919 16.6356 107.529 17.1034C108.14 17.5762 108.635 18.0973 109.017 18.6667C109.398 19.2412 109.69 19.7953 109.894 20.3291L105.547 22.0831C105.318 21.3968 104.924 20.8553 104.365 20.4588C103.805 20.0673 103.081 19.8716 102.191 19.8716C101.378 19.8716 100.768 20.0165 100.361 20.3063C99.9544 20.6011 99.751 20.9646 99.751 21.3968ZM123.391 8.28014V22.9982H124.307L129.34 16.0586H134.602V16.2874L128.501 24.9428V25.6292L135.212 34.7422V34.971H129.721L124.307 27.5738H123.391V34.971H118.587V8.28014H123.391ZM139.475 20.6342V16.0586H147.482V18.804H148.176C148.532 17.7617 149.134 16.9534 149.983 16.3789C150.837 15.8095 151.862 15.5248 153.056 15.5248C154.937 15.5248 156.45 16.1145 157.594 17.294C158.738 18.4786 159.31 20.2783 159.31 22.6932V23.532L154.353 23.9896V23.4558C154.353 22.4136 154.086 21.5798 153.552 20.9545C153.018 20.3342 152.218 20.0241 151.15 20.0241C150.082 20.0241 149.241 20.3927 148.626 21.1299C148.021 21.867 147.718 22.922 147.718 24.2946V30.3954H152.065V34.971H139.025V30.3954H142.906V20.6342H139.475ZM164.068 34.971V30.3954H170.474V20.6342H164.526V16.0586H175.278V30.3954H180.769V34.971H164.068ZM176.46 10.4535C176.46 10.9619 176.366 11.4373 176.178 11.8796C175.985 12.327 175.723 12.7083 175.393 13.0235C175.062 13.3438 174.676 13.598 174.234 13.7861C173.786 13.9793 173.321 14.0759 172.838 14.0759C172.33 14.0759 171.859 13.9793 171.427 13.7861C170.995 13.598 170.614 13.3438 170.283 13.0235C169.953 12.7083 169.694 12.327 169.506 11.8796C169.312 11.4373 169.216 10.9619 169.216 10.4535C169.216 9.94514 169.312 9.46979 169.506 9.02748C169.694 8.58009 169.953 8.1988 170.283 7.88359C170.614 7.5633 170.995 7.3091 171.427 7.12099C171.859 6.9278 172.33 6.83121 172.838 6.83121C173.321 6.83121 173.786 6.9278 174.234 7.12099C174.676 7.3091 175.062 7.5633 175.393 7.88359C175.723 8.1988 175.985 8.58009 176.178 9.02748C176.366 9.46979 176.46 9.94514 176.46 10.4535ZM186.527 20.6342V16.0586H192.132V8.28014H196.936V16.0586H203.761V20.6342H196.936V29.2515C196.936 30.0141 197.279 30.3954 197.966 30.3954H203.075V34.971H195.068C194.203 34.971 193.497 34.6914 192.948 34.1321C192.404 33.5729 192.132 32.8611 192.132 31.9969V20.6342H186.527ZM246.657 32.2256H245.971C245.463 33.4204 244.751 34.2643 243.836 34.7574C242.921 35.2557 241.853 35.5048 240.633 35.5048C239.489 35.5048 238.414 35.2887 237.407 34.8566C236.406 34.4244 235.523 33.7889 234.761 32.9501C233.998 32.1112 233.393 31.0944 232.946 29.8997C232.504 28.705 232.282 27.345 232.282 25.8198V25.2098C232.282 23.71 232.498 22.3627 232.931 21.168C233.363 19.9733 233.947 18.9565 234.685 18.1176C235.422 17.2788 236.278 16.6356 237.255 16.1883C238.236 15.7459 239.286 15.5248 240.404 15.5248C241.751 15.5248 242.837 15.7536 243.66 16.2111C244.489 16.6687 245.145 17.3804 245.628 18.3464H246.314V16.0586H251.118V29.2515C251.118 30.0141 251.462 30.3954 252.148 30.3954H252.872V34.971H249.593C248.729 34.971 248.022 34.7168 247.473 34.2084C246.929 33.7 246.657 33.0391 246.657 32.2256ZM241.7 30.9292C243.099 30.9292 244.217 30.464 245.056 29.5337C245.895 28.6084 246.314 27.345 246.314 25.7436V25.286C246.314 23.6846 245.895 22.4187 245.056 21.4883C244.217 20.563 243.099 20.1004 241.7 20.1004C240.302 20.1004 239.184 20.563 238.345 21.4883C237.506 22.4187 237.087 23.6846 237.087 25.286V25.7436C237.087 27.345 237.506 28.6084 238.345 29.5337C239.184 30.464 240.302 30.9292 241.7 30.9292ZM270.786 26.8493L275.514 28.0314C275.082 30.2683 274.06 32.0731 272.448 33.4458C270.832 34.8185 268.676 35.5048 265.981 35.5048C264.583 35.5048 263.282 35.2887 262.077 34.8566C260.867 34.4244 259.817 33.8017 258.927 32.9882C258.038 32.1748 257.339 31.1707 256.83 29.976C256.322 28.7812 256.068 27.4213 256.068 25.8961V25.4385C256.068 23.9133 256.322 22.5407 256.83 21.3205C257.339 20.1004 258.045 19.0582 258.95 18.1939C259.85 17.3296 260.905 16.6687 262.115 16.2111C263.32 15.7536 264.609 15.5248 265.981 15.5248C268.625 15.5248 270.768 16.2111 272.41 17.5838C274.047 18.9565 275.082 20.7613 275.514 22.9982L270.786 24.2184C270.633 23.0999 270.15 22.134 269.337 21.3205C268.523 20.5071 267.38 20.1004 265.905 20.1004C265.219 20.1004 264.571 20.2275 263.961 20.4817C263.351 20.7359 262.817 21.0994 262.359 21.5722C261.902 22.0399 261.541 22.6093 261.276 23.2804C261.007 23.9566 260.872 24.7141 260.872 25.5529V25.7817C260.872 26.6206 261.007 27.3628 261.276 28.0085C261.541 28.6592 261.902 29.2007 262.359 29.6328C262.817 30.0649 263.351 30.3878 263.961 30.6013C264.571 30.8199 265.219 30.9292 265.905 30.9292C267.38 30.9292 268.506 30.5606 269.283 29.8235C270.056 29.0863 270.557 28.0949 270.786 26.8493ZM293.32 32.2256H292.634C292.126 33.4204 291.414 34.2643 290.499 34.7574C289.584 35.2557 288.516 35.5048 287.296 35.5048C286.152 35.5048 285.079 35.2887 284.078 34.8566C283.071 34.4244 282.187 33.7889 281.424 32.9501C280.661 32.1112 280.059 31.0944 279.617 29.8997C279.169 28.705 278.946 27.345 278.946 25.8198V25.2098C278.946 23.71 279.162 22.3627 279.594 21.168C280.026 19.9733 280.611 18.9565 281.348 18.1176C282.085 17.2788 282.944 16.6356 283.925 16.1883C284.901 15.7459 285.949 15.5248 287.067 15.5248C288.414 15.5248 289.502 15.7536 290.331 16.2111C291.155 16.6687 291.808 17.3804 292.291 18.3464H292.977V16.0586H297.782V29.2515C297.782 30.0141 298.125 30.3954 298.811 30.3954H299.536V34.971H296.256C295.392 34.971 294.688 34.7168 294.144 34.2084C293.595 33.7 293.32 33.0391 293.32 32.2256ZM288.364 30.9292C289.762 30.9292 290.88 30.464 291.719 29.5337C292.558 28.6084 292.977 27.345 292.977 25.7436V25.286C292.977 23.6846 292.558 22.4187 291.719 21.4883C290.88 20.563 289.762 20.1004 288.364 20.1004C286.966 20.1004 285.847 20.563 285.008 21.4883C284.169 22.4187 283.75 23.6846 283.75 25.286V25.7436C283.75 27.345 284.169 28.6084 285.008 29.5337C285.847 30.464 286.966 30.9292 288.364 30.9292ZM317.304 34.971V32.2256H316.618C316.414 32.6578 316.165 33.0696 315.87 33.461C315.581 33.8576 315.199 34.2084 314.727 34.5134C314.259 34.8185 313.7 35.0599 313.049 35.2379C312.403 35.4158 311.623 35.5048 310.708 35.5048C309.538 35.5048 308.45 35.2938 307.444 34.8718C306.442 34.4549 305.565 33.8322 304.813 33.0035C304.065 32.1799 303.481 31.1707 303.059 29.976C302.642 28.7812 302.434 27.4086 302.434 25.858V25.1716C302.434 23.6464 302.655 22.2865 303.097 21.0917C303.544 19.897 304.154 18.8853 304.927 18.0566C305.705 17.233 306.607 16.6051 307.634 16.173C308.666 15.7409 309.754 15.5248 310.898 15.5248C312.424 15.5248 313.631 15.8095 314.521 16.3789C315.41 16.9534 316.109 17.7617 316.618 18.804H317.304V8.28014H322.108V34.971H317.304ZM312.271 30.9292C313.771 30.9292 314.983 30.4513 315.909 29.4955C316.839 28.5448 317.304 27.2942 317.304 25.7436V25.286C317.304 23.7354 316.839 22.4822 315.909 21.5264C314.983 20.5757 313.771 20.1004 312.271 20.1004C310.771 20.1004 309.556 20.563 308.626 21.4883C307.7 22.4187 307.238 23.6846 307.238 25.286V25.7436C307.238 27.345 307.7 28.6084 308.626 29.5337C309.556 30.464 310.771 30.9292 312.271 30.9292ZM345.177 27.0781H331.298C331.323 27.6373 331.455 28.1508 331.694 28.6186C331.938 29.0914 332.269 29.4981 332.686 29.8387C333.108 30.1844 333.591 30.4513 334.135 30.6394C334.684 30.8326 335.263 30.9292 335.873 30.9292C337.068 30.9292 337.983 30.7182 338.619 30.2963C339.254 29.8794 339.712 29.3786 339.991 28.794L344.109 31.0817C343.881 31.5647 343.563 32.0655 343.156 32.584C342.749 33.1077 342.221 33.5856 341.57 34.0177C340.924 34.4499 340.136 34.8057 339.206 35.0854C338.281 35.365 337.195 35.5048 335.95 35.5048C334.526 35.5048 333.23 35.276 332.06 34.8185C330.891 34.3609 329.879 33.7 329.025 32.8357C328.176 31.9714 327.515 30.9165 327.042 29.6709C326.575 28.4254 326.341 27.0146 326.341 25.4385V25.2098C326.341 23.7608 326.587 22.439 327.081 21.2443C327.579 20.0495 328.26 19.0327 329.124 18.1939C329.989 17.355 330.998 16.6992 332.152 16.2264C333.311 15.7587 334.551 15.5248 335.873 15.5248C337.5 15.5248 338.898 15.8095 340.068 16.3789C341.237 16.9534 342.203 17.6779 342.965 18.5523C343.728 19.4318 344.287 20.3978 344.643 21.4502C344.999 22.5076 345.177 23.532 345.177 24.5234V27.0781ZM335.835 19.8716C334.615 19.8716 333.624 20.1843 332.861 20.8096C332.098 21.4298 331.603 22.1467 331.374 22.9601H340.296C340.144 22.0704 339.666 21.3332 338.863 20.7486C338.064 20.1639 337.055 19.8716 335.835 19.8716ZM369.382 20.3291V34.971H364.577V21.7018C364.577 21.168 364.445 20.7664 364.181 20.4969C363.911 20.2325 363.561 20.1004 363.128 20.1004C362.62 20.1004 362.221 20.2529 361.931 20.5579C361.636 20.863 361.489 21.3205 361.489 21.9306V34.971H356.685V21.7018C356.685 21.168 356.54 20.7664 356.25 20.4969C355.955 20.2325 355.604 20.1004 355.197 20.1004C354.74 20.1004 354.359 20.2529 354.054 20.5579C353.749 20.863 353.596 21.3205 353.596 21.9306V34.971H348.792V16.0586H353.596V17.8888H354.282C354.435 17.2025 354.786 16.6356 355.335 16.1883C355.879 15.7459 356.596 15.5248 357.485 15.5248C358.324 15.5248 359.036 15.7459 359.62 16.1883C360.205 16.6356 360.599 17.2025 360.803 17.8888H361.489C361.692 17.2025 362.119 16.6356 362.77 16.1883C363.416 15.7459 364.222 15.5248 365.187 15.5248C366.458 15.5248 367.475 15.9493 368.238 16.7983C369 17.6524 369.382 18.8294 369.382 20.3291ZM386.54 25.9723V16.0586H391.344V39.6228C391.344 40.4871 391.072 41.1988 390.528 41.7581C389.979 42.3173 389.273 42.5969 388.408 42.5969H377.16V38.0214H385.511C386.197 38.0214 386.54 37.6401 386.54 36.8775V32.2256H385.854C385.015 34.4117 383.21 35.5048 380.439 35.5048C379.499 35.5048 378.622 35.3523 377.808 35.0472C376.995 34.7422 376.283 34.2719 375.673 33.6364C375.063 33.0009 374.588 32.2053 374.247 31.2495C373.901 30.2988 373.729 29.1752 373.729 27.8788V16.0586H378.533V26.8875C378.533 28.2347 378.851 29.282 379.486 30.0294C380.122 30.7818 381.075 31.158 382.346 31.158C383.795 31.158 384.857 30.6928 385.533 29.7624C386.205 28.8372 386.54 27.5738 386.54 25.9723Z" fill="#2B2B2B"/>
</g>
</g>
</g>
</g>
<g clip-path="url(#clip6_35_6)">
<g clip-path="url(#clip7_35_6)">
<path d="M448.682 23.6186C445.302 21.0724 441.647 19.7841 437.823 19.7841C437.739 19.7841 437.657 19.7841 437.573 19.7856C437.492 19.7841 437.408 19.7841 437.325 19.7841C436.988 19.7841 436.656 19.8067 436.323 19.8262C436.635 19.5498 436.941 19.2664 437.235 18.965C440.044 16.2353 441.775 12.6818 442.378 8.39989C442.439 7.97201 442.296 7.54257 441.991 7.23883C441.686 6.93432 441.256 6.79143 440.829 6.85077C436.549 7.45434 432.994 9.18539 430.266 11.9955C429.966 12.2868 429.685 12.592 429.409 12.902C429.434 12.4882 429.451 12.0728 429.445 11.6551C429.502 7.73855 428.212 4.00239 425.611 0.546535C425.353 0.20298 424.947 -3.05176e-05 424.517 -3.05176e-05C424.086 -3.05176e-05 423.68 0.20298 423.421 0.546535C420.821 4.00161 419.532 7.73855 419.588 11.6551C419.582 12.0728 419.599 12.4874 419.623 12.902C419.348 12.5928 419.066 12.2868 418.767 11.9955C416.039 9.18539 412.485 7.45434 408.203 6.85077C407.774 6.79143 407.346 6.93432 407.042 7.23883C406.738 7.54413 406.594 7.97357 406.653 8.39989C407.258 12.6818 408.988 16.2361 411.797 18.965C412.09 19.2664 412.398 19.549 412.709 19.8262C412.376 19.8075 412.042 19.7841 411.707 19.7841C411.623 19.7841 411.54 19.7841 411.457 19.7856C411.375 19.7841 411.292 19.7841 411.207 19.7841C407.382 19.7841 403.729 21.0724 400.35 23.6186C400.006 23.8778 399.803 24.2831 399.803 24.7133C399.803 25.1451 400.005 25.5495 400.35 25.8088C403.73 28.3542 407.383 29.6425 411.209 29.6425C411.292 29.6425 411.375 29.6425 411.457 29.641C411.54 29.6425 411.632 29.6363 411.706 29.6425C412.043 29.6425 412.376 29.6199 412.711 29.6012C412.4 29.8776 412.092 30.161 411.799 30.4632C408.989 33.1913 407.258 36.7463 406.654 41.0267C406.594 41.4538 406.738 41.8825 407.043 42.187C407.301 42.4462 407.651 42.5899 408.013 42.5899C408.076 42.5899 408.14 42.5852 408.205 42.5758C412.487 41.9723 416.041 40.2412 418.768 37.4319C419.068 37.1406 419.35 36.8338 419.625 36.5246C419.601 36.9392 419.583 37.3538 419.59 37.7723C419.533 41.6888 420.822 45.425 423.423 48.8808C423.682 49.2252 424.089 49.4282 424.519 49.4282C424.949 49.4282 425.354 49.2252 425.614 48.8808C428.214 45.425 429.504 41.6888 429.447 37.7723C429.453 37.3546 429.436 36.94 429.411 36.5261C429.686 36.8353 429.967 37.1422 430.267 37.4319C432.995 40.2412 436.55 41.9715 440.831 42.5758C440.895 42.5852 440.959 42.5899 441.023 42.5899C441.383 42.5899 441.733 42.4462 441.993 42.187C442.298 41.8817 442.441 41.4538 442.38 41.0267C441.777 36.7448 440.045 33.1897 437.236 30.4632C436.943 30.161 436.635 29.8776 436.323 29.6012C436.657 29.6191 436.991 29.6425 437.327 29.6425C437.411 29.6425 437.493 29.6425 437.575 29.641C437.657 29.6425 437.741 29.6425 437.823 29.6425C437.822 29.6425 437.824 29.6425 437.823 29.6425C441.648 29.6425 445.303 28.3542 448.683 25.8088C449.027 25.5495 449.23 25.1451 449.23 24.7133C449.228 24.2831 449.026 23.8778 448.682 23.6186ZM423.565 24.3307L424.516 23.382L425.464 24.3307L424.516 25.2794L423.565 24.3307ZM432.189 13.9507C432.199 13.9397 432.209 13.9296 432.219 13.9194C434.101 11.976 436.474 10.6416 439.292 9.93808C438.588 12.7545 437.254 15.1273 435.31 17.0099C435.299 17.0192 435.289 17.0309 435.279 17.0411C433.397 18.9845 431.025 20.3189 428.207 21.0224C428.911 18.2061 430.245 15.8316 432.189 13.9507ZM422.329 11.6332C422.287 8.9285 423.02 6.30655 424.516 3.81812C426.01 6.30655 426.744 8.9285 426.701 11.6324C426.701 11.6481 426.701 11.6629 426.701 11.6777C426.745 14.3817 426.01 17.0028 424.516 19.492C423.02 17.0028 422.287 14.3824 422.329 11.6769C422.329 11.6629 422.329 11.6481 422.329 11.6332ZM409.74 9.93808C412.557 10.6408 414.93 11.9752 416.811 13.9194C416.822 13.9296 416.832 13.9397 416.842 13.9507C418.785 15.8316 420.121 18.2045 420.822 21.0224C418.007 20.3189 415.633 18.9845 413.751 17.0395C413.741 17.0294 413.73 17.0192 413.72 17.0091C411.777 15.1273 410.442 12.7552 409.74 9.93808ZM411.478 26.8996C411.471 26.8996 411.464 26.8996 411.457 26.8996C411.45 26.8996 411.442 26.8996 411.434 26.8996C411.359 26.9011 411.284 26.9027 411.208 26.9027C408.584 26.9027 406.039 26.1679 403.619 24.7141C406.039 23.261 408.583 22.527 411.206 22.527C411.283 22.527 411.358 22.527 411.434 22.5286C411.449 22.5294 411.464 22.5294 411.478 22.5286C411.554 22.527 411.63 22.527 411.706 22.527C414.329 22.527 416.874 23.2602 419.293 24.7141C416.873 26.1679 414.328 26.9027 411.704 26.9027C411.628 26.9027 411.553 26.9011 411.478 26.8996ZM416.843 35.4775C416.832 35.4884 416.822 35.497 416.811 35.508C414.93 37.4506 412.557 38.785 409.74 39.4901C410.442 36.6737 411.776 34.3008 413.72 32.4167C413.73 32.4074 413.741 32.3972 413.752 32.3863C415.633 30.4436 418.006 29.1092 420.823 28.4057C420.12 31.2229 418.785 33.5958 416.843 35.4775ZM426.701 37.7942C426.745 40.4997 426.01 43.1208 424.516 45.61C423.02 43.1208 422.287 40.4997 422.329 37.7942C422.329 37.7785 422.329 37.7653 422.329 37.7512C422.287 35.0457 423.02 32.4246 424.516 29.9353C426.01 32.4246 426.744 35.0457 426.701 37.7512C426.701 37.7653 426.701 37.7785 426.701 37.7942ZM439.291 39.4901C436.475 38.7858 434.102 37.4514 432.218 35.5095C432.208 35.4986 432.199 35.4884 432.189 35.4775C430.245 33.5958 428.911 31.2229 428.207 28.4057C431.024 29.1085 433.397 30.4429 435.278 32.3863C435.289 32.3972 435.299 32.4074 435.31 32.4167C437.253 34.3001 438.587 36.6714 439.291 39.4901ZM437.821 26.9027C437.746 26.9027 437.672 26.9011 437.596 26.8996C437.588 26.8996 437.58 26.8996 437.573 26.8996C437.566 26.8996 437.559 26.8996 437.551 26.8996C437.476 26.9011 437.401 26.9027 437.326 26.9027C434.701 26.9027 432.157 26.1679 429.738 24.7141C432.157 23.261 434.701 22.527 437.325 22.527C437.401 22.527 437.476 22.527 437.551 22.5286C437.567 22.5294 437.582 22.5294 437.597 22.5286C437.672 22.527 437.748 22.527 437.824 22.527C440.447 22.527 442.993 23.2602 445.412 24.7141C442.992 26.1672 440.447 26.9027 437.821 26.9027Z" fill="#F4A424"/>
<path d="M437.574 26.5099C438.566 26.5099 439.37 25.7059 439.37 24.7141C439.37 23.7222 438.566 22.9182 437.574 22.9182C436.582 22.9182 435.778 23.7222 435.778 24.7141C435.778 25.7059 436.582 26.5099 437.574 26.5099Z" fill="#F4A424"/>
<path d="M411.457 26.5099C412.449 26.5099 413.253 25.7059 413.253 24.7141C413.253 23.7222 412.449 22.9182 411.457 22.9182C410.465 22.9182 409.661 23.7222 409.661 24.7141C409.661 25.7059 410.465 26.5099 411.457 26.5099Z" fill="#F4A424"/>
<path d="M424.515 39.5689C425.507 39.5689 426.311 38.7649 426.311 37.7731C426.311 36.7813 425.507 35.9772 424.515 35.9772C423.523 35.9772 422.719 36.7813 422.719 37.7731C422.719 38.7649 423.523 39.5689 424.515 39.5689Z" fill="#F4A424"/>
<path d="M424.515 13.4509C425.507 13.4509 426.311 12.6469 426.311 11.6551C426.311 10.6633 425.507 9.85922 424.515 9.85922C423.523 9.85922 422.719 10.6633 422.719 11.6551C422.719 12.6469 423.523 13.4509 424.515 13.4509Z" fill="#F4A424"/>
<path d="M433.75 35.743C434.741 35.743 435.545 34.939 435.545 33.9471C435.545 32.9553 434.741 32.1513 433.75 32.1513C432.758 32.1513 431.954 32.9553 431.954 33.9471C431.954 34.939 432.758 35.743 433.75 35.743Z" fill="#F4A424"/>
<path d="M415.281 17.2761C416.273 17.2761 417.077 16.4721 417.077 15.4802C417.077 14.4884 416.273 13.6844 415.281 13.6844C414.289 13.6844 413.485 14.4884 413.485 15.4802C413.485 16.4721 414.289 17.2761 415.281 17.2761Z" fill="#F4A424"/>
<path d="M415.281 35.743C416.273 35.743 417.077 34.939 417.077 33.9471C417.077 32.9553 416.273 32.1513 415.281 32.1513C414.289 32.1513 413.485 32.9553 413.485 33.9471C413.485 34.939 414.289 35.743 415.281 35.743Z" fill="#F4A424"/>
<path d="M433.75 17.2761C434.741 17.2761 435.545 16.4721 435.545 15.4802C435.545 14.4884 434.741 13.6844 433.75 13.6844C432.758 13.6844 431.954 14.4884 431.954 15.4802C431.954 16.4721 432.758 17.2761 433.75 17.2761Z" fill="#F4A424"/>
</g>
</g>
</g>
</g>
<defs>
<clipPath id="clip0_35_6">
<rect width="449.005" height="49.4282" fill="white" transform="translate(0.224747 -3.05176e-05)"/>
</clipPath>
<clipPath id="clip1_35_6">
<rect width="449.005" height="49.4282" fill="white" transform="translate(0.224747 -3.05176e-05)"/>
</clipPath>
<clipPath id="clip2_35_6">
<rect width="391.135" height="35.7657" fill="white" transform="translate(0.224731 6.83121)"/>
</clipPath>
<clipPath id="clip3_35_6">
<rect width="391.135" height="35.7657" fill="white" transform="translate(0.224731 6.83121)"/>
</clipPath>
<clipPath id="clip4_35_6">
<rect width="391.135" height="35.7657" fill="white" transform="translate(0.224731 6.83121)"/>
</clipPath>
<clipPath id="clip5_35_6">
<rect width="391.135" height="35.7657" fill="white" transform="translate(0.224731 6.83121)"/>
</clipPath>
<clipPath id="clip6_35_6">
<rect width="49.4266" height="49.4282" fill="white" transform="translate(399.803 -3.05176e-05)"/>
</clipPath>
<clipPath id="clip7_35_6">
<rect width="49.4266" height="49.4282" fill="white" transform="translate(399.803 -3.05176e-05)"/>
</clipPath>
</defs>
</svg>
